<?xml version="1.0" encoding="UTF-8" standalone="no"?><!DOCTYPE svg PUBLIC "-//W3C//DTD SVG 1.1//EN" "http://www.w3.org/Graphics/SVG/1.1/DTD/svg11.dtd"><svg width="100%" height="100%" viewBox="0 0 134 144" version="1.1" xmlns="http://www.w3.org/2000/svg" xmlns:xlink="http://www.w3.org/1999/xlink" xml:space="preserve" xmlns:serif="http://www.serif.com/" style="fill-rule:evenodd;clip-rule:evenodd;stroke-linecap:round;stroke-linejoin:round;stroke-miterlimit:1.5;"><ellipse cx="66.964" cy="121.306" rx="66.964" ry="21.898" style="fill:#436e42;"/><path id="Church" d="M93.441,120.797l25.29,-0.297l-0.199,-53.952l-0.008,-1.332l2.209,-2.013l-32.053,-17.185l0,-21.819l3.769,3.372l1.785,-1.686l-23.108,-25.885l-24.794,25.488l2.182,2.281l3.074,-2.776l0,19.438l-38.081,18.675l0.163,2.934l3.603,-1.743l0.04,56.818l24.596,-0.08l51.532,-0.238Z" style="fill:#fdeb99;"/><path d="M49.71,26.689l-1.196,1.08l-2.182,-2.281l24.794,-25.488l23.108,25.885l-1.785,1.686l-2.043,-1.828l-19.425,-21.04l-21.271,21.986Z" style="fill:#f9794e;"/><path id="Stairs" d="M39.574,129.312l60.458,-0.397l0,-5.389l-5.189,0l0,-5.297l-4.257,0l0,-4.647l-41.371,0l0,3.965l-5.004,0l0,5.914l-4.681,0l0.044,5.851Z" style="fill:#5e4400;"/><path id="Puerta" d="M57.763,113.582l0.298,-29.988c0,0 1.395,-6.843 11.52,-6.843c10.532,0 10.993,6.843 10.993,6.843l0,29.853l-22.809,0" style="fill:#c18d5d;"/><path id="Ventana_izquierda" d="M33.257,92.81l0.147,-14.861c0,0 0.692,-3.392 5.709,-3.392c5.22,0 5.448,3.392 5.448,3.392l0,14.794l-11.304,0" style="fill:#216c72;"/><path id="Ventana_derecha" d="M91.562,92.81l0.147,-14.861c0,0 0.692,-3.392 5.709,-3.392c5.22,0 5.448,3.392 5.448,3.392l0,14.794l-11.304,0" style="fill:#216c72;"/><path id="Ventana_arriba" d="M63.959,43.9l0.147,-14.861c0,0 0.692,-3.392 5.71,-3.392c5.219,0 5.447,3.392 5.447,3.392l0,14.794l-11.303,0" style="fill:#216c72;stroke:#000;stroke-width:1px;"/><path d="M68.341,74.378l2.823,0l0,-5.541l2.43,-0.014l-0.027,-2.496l-2.455,0l0,-2.614l-2.666,0l0,2.457l-2.51,0l0,2.353l2.614,0l-0.209,5.855Z" style="fill:#faff00;stroke:#000;stroke-width:0.31px;"/><path id="Tejado_izquierdo" d="M13.653,66.024l38.084,-18.17l0,-3.524l-38.241,18.745l0.157,2.949Z" style="fill:#f9794e;"/><path id="Tejado_derecho" d="M120.7,66.532l0.042,-3.266l-31.694,-17.233l0,3.555l31.652,16.944Z" style="fill:#f9794e;"/></svg>