<?xml version="1.0" encoding="UTF-8" standalone="no"?><!DOCTYPE svg PUBLIC "-//W3C//DTD SVG 1.1//EN" "http://www.w3.org/Graphics/SVG/1.1/DTD/svg11.dtd"><svg width="100%" height="100%" viewBox="0 0 57 117" version="1.1" xmlns="http://www.w3.org/2000/svg" xmlns:xlink="http://www.w3.org/1999/xlink" xml:space="preserve" xmlns:serif="http://www.serif.com/" style="fill-rule:evenodd;clip-rule:evenodd;stroke-linecap:round;stroke-linejoin:round;stroke-miterlimit:1.5;"><path d="M18.395,107.204c4.86,-17.411 -6.431,-33.159 -12.206,-48.678c-5.367,-14.423 -8.602,-33.122 -3.002,-48.178c1.696,-4.559 4.999,-5.888 10.019,-7.696c9.65,-3.477 27.833,-3.933 35.866,3.897c7.535,7.343 7.041,23.376 6.525,32.742c-0.448,8.133 -2.284,18.326 -5.826,25.783c-6.377,13.425 -18.935,25.857 -14.531,42.155c3.245,0.29 6.525,0.686 9.63,1.675c1.443,0.459 3.106,1.204 3.739,2.58c0.347,0.754 -0.985,1.422 -1.725,1.798c-1.464,0.744 -3.075,1.242 -4.702,1.469c-5.137,0.718 -10.316,1.354 -15.504,1.354c-5.187,0 -10.366,-0.636 -15.504,-1.354c-1.626,-0.227 -3.238,-0.725 -4.701,-1.469c-0.741,-0.376 -2.082,-1.048 -1.725,-1.798c0.663,-1.392 2.351,-2.145 3.823,-2.606c3.169,-0.994 6.514,-1.389 9.824,-1.674Z" style="fill:#cff8eb;stroke:#000;stroke-width:0.52px;"/><g><path d="M9.792,57.75c6.897,-6.897 31.739,-6.957 38.498,0.076c0.269,0.279 -3.862,20.585 -20.096,20.989c-15.444,0.385 -18.439,-21.028 -18.402,-21.065Z" style="fill:#800013;stroke:#000;stroke-width:0.5px;"/><path d="M10.226,57.848c0,0 2.036,4.004 18.849,3.949c16.512,-0.054 19.054,-3.635 19.054,-3.635" style="fill:none;stroke:#000;stroke-width:0.5px;"/></g><path d="M51.15,8.909c-1.263,1.263 -7.523,4.692 -11.434,5.096c-8.705,0.9 -17.79,1.727 -26.377,-0.623c-3.172,-0.868 -7.551,-2.321 -8.426,-6.091" style="fill:none;stroke:#000;stroke-width:0.5px;"/></svg>