<?xml version="1.0" encoding="UTF-8" standalone="no"?><!DOCTYPE svg PUBLIC "-//W3C//DTD SVG 1.1//EN" "http://www.w3.org/Graphics/SVG/1.1/DTD/svg11.dtd"><svg width="100%" height="100%" viewBox="0 0 200 200" version="1.1" xmlns="http://www.w3.org/2000/svg" xmlns:xlink="http://www.w3.org/1999/xlink" xml:space="preserve" xmlns:serif="http://www.serif.com/" style="fill-rule:evenodd;clip-rule:evenodd;stroke-linecap:round;stroke-linejoin:round;stroke-miterlimit:1.5;"><path d="M164.632,50.136c0,-3.2 -2.598,-5.798 -5.797,-5.798l-125.25,0c-3.2,0 -5.798,2.598 -5.798,5.798l0,104.353c0,3.2 2.598,5.798 5.798,5.798l125.25,0c3.199,0 5.797,-2.598 5.797,-5.798l0,-104.353Z" style="fill:#2a2a2a;stroke:#000;stroke-width:1px;"/><path d="M160.6,53.211c0,-3.011 -2.445,-5.456 -5.456,-5.456l-117.869,0c-3.011,0 -5.455,2.445 -5.455,5.456l0,98.203c0,3.012 2.444,5.456 5.455,5.456l117.869,0c3.011,0 5.456,-2.444 5.456,-5.456l0,-98.203Z" style="fill:#fff;"/><clipPath id="_clip1"><path d="M160.6,53.211c0,-3.011 -2.445,-5.456 -5.456,-5.456l-117.869,0c-3.011,0 -5.455,2.445 -5.455,5.456l0,98.203c0,3.012 2.444,5.456 5.455,5.456l117.869,0c3.011,0 5.456,-2.444 5.456,-5.456l0,-98.203Z"/></clipPath><g clip-path="url(#_clip1)"><path d="M30.772,70.893l131.557,0l-0.484,-24.858l-130.935,-0.15l-0.138,25.008Z" style="fill:#ca5353;"/></g><path d="M160.6,53.211c0,-3.011 -2.445,-5.456 -5.456,-5.456l-117.869,0c-3.011,0 -5.455,2.445 -5.455,5.456l0,98.203c0,3.012 2.444,5.456 5.455,5.456l117.869,0c3.011,0 5.456,-2.444 5.456,-5.456l0,-98.203Z" style="fill:none;stroke:#000;stroke-width:1px;"/><rect x="38.464" y="76.073" width="13.719" height="9.036" style="fill:#bababa;"/><rect x="55.654" y="76.128" width="13.719" height="9.036" style="fill:#bababa;"/><rect x="38.464" y="76.073" width="13.719" height="9.036" style="fill:#bababa;"/><rect x="72.814" y="76.027" width="13.719" height="9.036" style="fill:#bababa;"/><rect x="89.916" y="76.027" width="13.719" height="9.036" style="fill:#bababa;"/><rect x="106.931" y="76.027" width="13.719" height="9.036" style="fill:#bababa;"/><rect x="124.077" y="76.027" width="13.719" height="9.036" style="fill:#ffd95a;"/><rect x="141.136" y="76.027" width="13.719" height="9.036" style="fill:#ffd95a;"/><text x="40.868px" y="83.407px" style="font-family:'ArialMT', 'Arial', sans-serif;font-size:8px;">Lu</text><text x="56.83px" y="83.462px" style="font-family:'ArialMT', 'Arial', sans-serif;font-size:8px;">Ma</text><text x="75.427px" y="83.408px" style="font-family:'ArialMT', 'Arial', sans-serif;font-size:8px;">Mi</text><text x="92.724px" y="83.359px" style="font-family:'ArialMT', 'Arial', sans-serif;font-size:8px;">Ju</text><text x="110.56px" y="83.408px" style="font-family:'ArialMT', 'Arial', sans-serif;font-size:8px;">V<tspan x="115.751px " y="83.408px ">i</tspan></text><text x="126.035px" y="83.408px" style="font-family:'ArialMT', 'Arial', sans-serif;font-size:8px;">Sa</text><text x="142.722px" y="83.361px" style="font-family:'ArialMT', 'Arial', sans-serif;font-size:8px;">Do</text><text x="76.806px" y="65.082px" style="font-family:'CenturySchlbkCyrillicBT-Bold', 'CentSchbkCyrill BT', serif;font-weight:700;font-size:18px;fill:#fff;">Mes</text><text x="94.317px" y="95.121px" style="font-family:'ArialMT', 'Arial', sans-serif;font-size:8px;">1</text><text x="111.501px" y="95.051px" style="font-family:'ArialMT', 'Arial', sans-serif;font-size:8px;">2</text><text x="145.814px" y="95.054px" style="font-family:'ArialMT', 'Arial', sans-serif;font-size:8px;">4</text><text x="128.767px" y="95.331px" style="font-family:'ArialMT', 'Arial', sans-serif;font-size:8px;">3</text></svg>