<?xml version="1.0" encoding="UTF-8" standalone="no"?><!DOCTYPE svg PUBLIC "-//W3C//DTD SVG 1.1//EN" "http://www.w3.org/Graphics/SVG/1.1/DTD/svg11.dtd"><svg width="100%" height="100%" viewBox="0 0 375 372" version="1.1" xmlns="http://www.w3.org/2000/svg" xmlns:xlink="http://www.w3.org/1999/xlink" xml:space="preserve" xmlns:serif="http://www.serif.com/" style="fill-rule:evenodd;clip-rule:evenodd;stroke-linejoin:round;stroke-miterlimit:2;"><ellipse cx="187.446" cy="185.513" rx="187.446" ry="185.513"/><ellipse cx="187.446" cy="185.513" rx="153.111" ry="151.533" style="fill:#f4f4f4;"/><path d="M121.494,102.712c-2.823,-2.847 -7.426,-2.866 -10.273,-0.043l-6.877,6.82c-2.847,2.823 -2.866,7.426 -0.043,10.273l74.23,74.85c2.824,2.847 7.427,2.866 10.273,0.043l6.877,-6.82c2.847,-2.823 2.866,-7.426 0.043,-10.272l-74.23,-74.851Z"/><path d="M61.475,205.063c-2.457,0.517 -4.031,2.931 -3.515,5.387l1.249,5.935c0.517,2.456 2.931,4.031 5.387,3.514l122.994,-25.878c2.456,-0.517 4.031,-2.931 3.514,-5.388l-1.249,-5.934c-0.517,-2.456 -2.931,-4.031 -5.387,-3.514l-122.993,25.878Z" style="fill:#f00;"/><path d="M270.849,198.42c4.008,0.088 7.333,-3.096 7.42,-7.104l0.211,-9.683c0.087,-4.008 -3.096,-7.333 -7.104,-7.42l-87.043,-1.895c-4.008,-0.087 -7.333,3.096 -7.42,7.104l-0.211,9.683c-0.087,4.008 3.096,7.333 7.104,7.42l87.043,1.895Z"/><ellipse cx="187.446" cy="185.513" rx="20.891" ry="20.675"/></svg>